HIERARCHY
ROOT Hips
{
	OFFSET -0.001795 -0.223333 0.028219
	CHANNELS 6 Xposition Yposition Zposition Zrotation Yrotation Xrotation 
	JOINT LeftUpLeg
	{
		OFFSET 0.069520 -0.091406 -0.006815
		CHANNELS 3 Zrotation Yrotation Xrotation
		JOINT LeftLeg
		{
			OFFSET 0.034277 -0.375199 -0.004496
			CHANNELS 3 Zrotation Yrotation Xrotation
			JOINT LeftFoot
			{
				OFFSET -0.013596 -0.397961 -0.043693
				CHANNELS 3 Zrotation Yrotation Xrotation
				JOINT LeftToe
				{
					OFFSET 0.026358 -0.055791 0.119288
					CHANNELS 3 Zrotation Yrotation Xrotation
					End Site
					{
						OFFSET 0.000000 0.000000 0.000000
					}
				}
			}
		}
	}
	JOINT RightUpLeg
	{
		OFFSET -0.067670 -0.090522 -0.004320
		CHANNELS 3 Zrotation Yrotation Xrotation
		JOINT RightLeg
		{
			OFFSET -0.038290 -0.382569 -0.008850
			CHANNELS 3 Zrotation Yrotation Xrotation
			JOINT RightFoot
			{
				OFFSET 0.015774 -0.398415 -0.042312
				CHANNELS 3 Zrotation Yrotation Xrotation
				JOINT RightToe
				{
					OFFSET -0.025372 -0.048144 0.123348
					CHANNELS 3 Zrotation Yrotation Xrotation
					End Site
					{
						OFFSET 0.000000 0.000000 0.000000
					}
				}
			}
		}
	}
	JOINT Spine
	{
		OFFSET -0.002533 0.108963 -0.026696
		CHANNELS 3 Zrotation Yrotation Xrotation
		JOINT Spine1
		{
			OFFSET 0.005487 0.135180 0.001092
			CHANNELS 3 Zrotation Yrotation Xrotation
			JOINT Spine2
			{
				OFFSET 0.001457 0.052922 0.025425
				CHANNELS 3 Zrotation Yrotation Xrotation
				JOINT Neck
				{
					OFFSET -0.002778 0.213870 -0.042857
					CHANNELS 3 Zrotation Yrotation Xrotation
					JOINT Head
					{
						OFFSET 0.005152 0.064970 0.051349
						CHANNELS 3 Zrotation Yrotation Xrotation
						End Site
						{
							OFFSET 0.000000 0.000000 0.000000
						}
					}
				}
				JOINT LeftShoulder
				{
					OFFSET 0.078845 0.121749 -0.034090
					CHANNELS 3 Zrotation Yrotation Xrotation
					JOINT LeftArm
					{
						OFFSET 0.090977 0.030469 -0.008868
						CHANNELS 3 Zrotation Yrotation Xrotation
						JOINT LeftForeArm
						{
							OFFSET 0.259612 -0.012772 -0.027456
							CHANNELS 3 Zrotation Yrotation Xrotation
							JOINT LeftHand
							{
								OFFSET 0.249234 0.008986 -0.001171
								CHANNELS 3 Zrotation Yrotation Xrotation
								End Site
								{
									OFFSET 0.000000 0.000000 0.000000
								}
							}
						}
					}
				}
				JOINT RightShoulder
				{
					OFFSET -0.081759 0.118833 -0.038615
					CHANNELS 3 Zrotation Yrotation Xrotation
					JOINT RightArm
					{
						OFFSET -0.096012 0.032551 -0.009143
						CHANNELS 3 Zrotation Yrotation Xrotation
						JOINT RightForeArm
						{
							OFFSET -0.253742 -0.013329 -0.021401
							CHANNELS 3 Zrotation Yrotation Xrotation
							JOINT RightHand
							{
								OFFSET -0.255298 0.007772 -0.005559
								CHANNELS 3 Zrotation Yrotation Xrotation
								End Site
								{
									OFFSET 0.000000 0.000000 0.000000
								}
							}
						}
					}
				}
			}
		}
	}
}
MOTION
Frames: 15
Frame Time: 0.050000
0.000000 0.950119 0.000000 -1.598390 3.257534 0.273343 0.119608 0.444610 5.225285 0.477488 -0.028815 -0.526017 0.453653 7.456625 17.670731 0.000000 0.000000 0.000000 3.892833 -0.156294 0.591203 -2.693959 0.460206 2.588832 5.827080 10.189399 6.679765 0.000000 0.000000 0.000000 4.158431 -0.144720 1.340486 0.161555 -0.215463 3.166539 -4.814596 1.086728 0.059905 9.319130 -5.162658 -10.092043 0.000000 0.000000 0.000000 -28.440672 -3.202763 -2.576506 -43.871343 -1.319997 -3.866904 -8.279882 -19.984972 2.025474 0.000000 0.000000 0.000000 28.565840 -4.059856 -4.178311 49.471208 4.439203 -3.005110 6.844522 21.018575 1.942804 0.000000 0.000000 0.000000 
0.000247 0.950371 0.000084 -1.859329 3.075974 0.557933 0.611773 0.403039 5.092554 0.030121 0.025721 -0.823494 0.511289 7.533134 17.750991 0.000000 0.000000 0.000000 3.986583 -0.049894 -0.223773 -2.430220 0.482673 3.596156 5.874310 10.406333 6.486610 0.000000 0.000000 0.000000 4.812169 -0.130037 0.914299 0.016419 -0.154112 3.521240 -5.751770 1.296325 -0.080607 10.200452 -5.570240 -10.812985 0.000000 0.000000 0.000000 -28.041763 -2.974567 -2.801670 -44.229449 -1.343997 -3.852121 -8.336872 -20.971056 2.118939 0.000000 0.000000 0.000000 28.151619 -5.279956 -4.814973 50.867821 4.243922 -3.140148 7.447908 22.435830 2.224455 0.000000 0.000000 0.000000 
0.000448 0.949748 0.000156 -1.578776 2.895577 0.693618 0.425039 0.393186 4.805016 -0.264915 0.043770 -0.502634 0.618742 7.634501 17.662592 0.000000 0.000000 0.000000 4.360492 -0.017548 -0.522555 -3.458334 0.663382 4.114996 5.374894 9.885458 5.541966 0.000000 0.000000 0.000000 4.914858 -0.144327 1.042849 -0.011444 -0.082409 2.201743 -5.871086 1.353702 0.794468 8.651193 -4.891845 -9.231949 0.000000 0.000000 0.000000 -27.617620 -3.342698 -2.458417 -44.421703 -1.198348 -4.011497 -8.867570 -20.299493 2.154988 0.000000 0.000000 0.000000 28.317279 -4.521993 -4.312919 50.398046 3.998260 -3.307597 7.924048 22.780582 2.358338 0.000000 0.000000 0.000000 
0.000539 0.950221 0.000486 -1.842828 3.205149 0.466760 0.463354 0.440445 5.450289 0.273090 0.018084 -1.249758 0.441303 7.439744 17.710279 0.000000 0.000000 0.000000 4.630032 -0.028955 -0.447001 -3.181002 0.664434 4.757303 4.945489 9.196300 5.123251 0.000000 0.000000 0.000000 5.043475 -0.184794 1.516740 -0.043995 -0.079433 2.459477 -5.650514 1.110497 0.240552 8.524937 -4.687898 -9.747422 0.000000 0.000000 0.000000 -27.685392 -2.807712 -2.786409 -44.683121 -1.303236 -3.967363 -9.498029 -20.403253 2.272791 0.000000 0.000000 0.000000 28.079993 -4.787370 -4.515473 50.192452 4.137795 -3.176257 8.927370 22.806876 2.538293 0.000000 0.000000 0.000000 
0.000634 0.950599 0.000779 -1.851290 3.375479 0.362198 0.239125 0.463867 5.569828 0.727991 -0.023079 -1.267529 0.356526 7.368052 17.795095 0.000000 0.000000 0.000000 4.735682 -0.059419 -0.233901 -3.186744 0.674604 4.899624 4.625498 8.731463 4.711527 0.000000 0.000000 0.000000 4.909992 -0.208766 1.860380 0.410283 -0.318706 2.616560 -6.100403 1.559130 -0.246154 8.547391 -4.778638 -9.103959 0.000000 0.000000 0.000000 -27.592206 -3.341981 -2.712698 -44.299830 -1.443543 -3.760555 -10.643040 -19.945041 2.391537 0.000000 0.000000 0.000000 28.112317 -4.987544 -4.432090 49.811075 4.034713 -3.218081 9.521428 23.102768 2.714488 0.000000 0.000000 0.000000 
0.000591 0.950687 0.001166 -1.974342 3.655416 0.251170 0.156390 0.481185 5.742744 1.202722 -0.061217 -1.383635 0.244667 7.234292 17.732117 0.000000 0.000000 0.000000 4.827766 -0.077955 -0.098503 -3.037825 0.676814 5.306320 4.380219 8.580884 4.080622 0.000000 0.000000 0.000000 4.905347 -0.241070 2.257878 0.698859 -0.457427 2.403060 -6.199510 1.432549 -0.091995 8.459563 -4.705760 -9.177360 0.000000 0.000000 0.000000 -27.736925 -3.399014 -2.709967 -44.204319 -1.617429 -3.692915 -10.738163 -19.870420 2.398847 0.000000 0.000000 0.000000 28.288381 -4.902939 -4.374217 49.659561 4.259103 -3.146948 9.546985 23.596835 2.791146 0.000000 0.000000 0.000000 
0.000392 0.950576 0.001424 -2.026283 3.852035 0.214683 0.221569 0.480356 5.811501 1.271082 -0.064076 -1.448105 0.158931 7.116258 17.646749 0.000000 0.000000 0.000000 4.943094 -0.059338 -0.229812 -3.129837 0.708966 5.591931 4.368032 8.551403 4.102245 0.000000 0.000000 0.000000 4.853337 -0.252487 2.415629 0.770114 -0.499906 2.484766 -6.245091 1.240430 -0.074707 8.682319 -4.819903 -9.385867 0.000000 0.000000 0.000000 -27.878150 -3.597858 -2.578624 -43.912916 -1.972770 -3.542427 -10.784301 -19.549318 2.371913 0.000000 0.000000 0.000000 28.265685 -4.744670 -4.298443 49.799305 4.396315 -3.089918 9.171684 24.223437 2.798270 0.000000 0.000000 0.000000 
0.000082 0.950204 0.001423 -2.080313 3.833873 0.178501 0.285053 0.460379 5.618579 1.286876 -0.084440 -1.033796 0.232913 7.167176 17.455557 0.000000 0.000000 0.000000 5.031241 0.009185 -0.703457 -2.905196 0.712289 6.257083 4.143148 7.897644 4.288018 0.000000 0.000000 0.000000 4.748156 -0.285129 2.854463 0.932836 -0.565207 2.174241 -6.176333 1.114936 0.321814 8.702116 -4.760452 -9.856359 0.000000 0.000000 0.000000 -27.831035 -3.980088 -2.257203 -43.599169 -2.501723 -3.378905 -10.825952 -19.479214 2.380789 0.000000 0.000000 0.000000 28.210668 -4.627794 -4.258069 49.852597 4.819279 -2.945339 8.946959 24.959533 2.848967 0.000000 0.000000 0.000000 
-0.000351 0.949733 0.001248 -2.108236 3.718833 0.303640 0.448481 0.432878 5.402607 1.060107 -0.069756 -0.886712 0.329986 7.244065 17.293491 0.000000 0.000000 0.000000 5.075970 0.101837 -1.352349 -2.784592 0.732450 6.950814 4.066781 7.645730 4.386327 0.000000 0.000000 0.000000 4.537871 -0.308261 3.210791 0.987389 -0.582006 1.993443 -5.947716 0.886350 0.454773 8.630057 -4.659325 -10.234510 0.000000 0.000000 0.000000 -27.695926 -4.206187 -1.960367 -43.435253 -3.252984 -3.155533 -10.475354 -19.033748 2.282594 0.000000 0.000000 0.000000 28.305925 -3.988789 -3.973086 49.576768 5.376721 -2.690992 8.455961 25.618960 2.810765 0.000000 0.000000 0.000000 
-0.000820 0.949481 0.001145 -2.205855 3.664022 0.359430 0.661597 0.405845 5.236117 0.905003 -0.062658 -0.708219 0.392265 7.291303 17.168647 0.000000 0.000000 0.000000 5.319616 0.139536 -1.628571 -2.816727 0.757591 7.286445 3.875769 7.237844 4.309822 0.000000 0.000000 0.000000 4.559860 -0.336337 3.528004 1.045735 -0.606155 1.908271 -5.941340 0.765443 0.588692 8.710950 -4.611540 -10.814515 0.000000 0.000000 0.000000 -27.715567 -4.508446 -1.710938 -43.060209 -3.883888 -2.934755 -10.204704 -18.792119 2.217421 0.000000 0.000000 0.000000 28.342636 -3.740590 -3.864607 49.433081 6.059871 -2.413694 8.181262 25.913880 2.782239 0.000000 0.000000 0.000000 
-0.001276 0.949530 0.001351 -2.199560 3.669612 0.354662 0.747679 0.402956 5.272634 0.799669 -0.050943 -0.744328 0.371956 7.272840 17.206232 0.000000 0.000000 0.000000 5.433423 0.149227 -1.698099 -2.800762 0.754023 7.273805 3.720741 6.715069 4.572424 0.000000 0.000000 0.000000 4.556838 -0.376497 4.014103 1.048288 -0.603508 1.836780 -5.827590 0.590234 0.670170 8.782982 -4.615372 -11.120140 0.000000 0.000000 0.000000 -27.470346 -4.814262 -1.409362 -42.837716 -4.513535 -2.737317 -9.858571 -19.339421 2.232719 0.000000 0.000000 0.000000 28.262384 -3.445650 -3.733462 49.496831 6.664918 -2.162411 7.580003 26.275656 2.686580 0.000000 0.000000 0.000000 
-0.001695 0.949466 0.002008 -2.148218 3.705532 0.362563 0.945698 0.394633 5.339858 0.420913 -0.012083 -0.805492 0.314017 7.201112 17.238763 0.000000 0.000000 0.000000 5.457516 0.168908 -1.829018 -2.654780 0.727943 7.270472 3.517068 5.984138 5.013971 0.000000 0.000000 0.000000 4.437258 -0.390961 4.258708 1.055478 -0.610907 1.900932 -5.540918 0.260705 0.621372 8.666995 -4.457119 -11.665191 0.000000 0.000000 0.000000 -27.197691 -4.686394 -1.311933 -42.923914 -4.729304 -2.717828 -10.254057 -20.316782 2.428217 0.000000 0.000000 0.000000 27.998669 -3.255000 -3.725694 49.676429 6.837586 -2.045387 7.184966 26.585813 2.612724 0.000000 0.000000 0.000000 
-0.002312 0.949699 0.002920 -2.117209 3.590951 0.308434 0.945269 0.411125 5.541595 0.415164 -0.006699 -0.934812 0.330779 7.254515 17.401729 0.000000 0.000000 0.000000 5.556812 0.154490 -1.738357 -2.545593 0.705895 7.209079 3.250514 5.255338 5.196536 0.000000 0.000000 0.000000 4.281294 -0.410190 4.605393 1.158077 -0.656192 1.806425 -5.359732 0.099907 0.632879 8.620985 -4.396038 -11.931227 0.000000 0.000000 0.000000 -27.140316 -4.689698 -1.204259 -42.919324 -4.953093 -2.674170 -10.279244 -21.323524 2.564049 0.000000 0.000000 0.000000 28.100100 -2.956332 -3.639494 49.287509 6.999076 -1.948850 6.815881 26.807263 2.538156 0.000000 0.000000 0.000000 
-0.003098 0.949444 0.003947 -2.100227 3.303050 0.367873 0.919557 0.416351 5.552012 0.294396 -0.028166 -0.060880 0.620106 6.988926 15.118758 0.000000 0.000000 0.000000 5.539945 0.176412 -1.902121 -2.413925 0.690189 7.315850 3.281273 5.192589 5.391056 0.000000 0.000000 0.000000 4.180691 -0.443552 5.080151 0.985008 -0.556983 1.616874 -4.923350 -0.025268 0.517456 8.433865 -4.236850 -12.258046 0.000000 0.000000 0.000000 -26.836883 -4.357991 -1.242909 -43.121189 -5.028452 -2.701710 -10.573481 -22.591328 2.788255 0.000000 0.000000 0.000000 27.765700 -2.674376 -3.557886 49.296350 6.628281 -2.044480 6.789618 27.399253 2.573161 0.000000 0.000000 0.000000 
-0.004151 0.949074 0.004989 -2.034124 3.485000 0.347001 1.072489 0.410380 5.634468 -0.020484 -0.033438 0.998021 0.570329 6.070371 12.288445 0.000000 0.000000 0.000000 5.451394 0.190969 -1.985908 -2.184470 0.650350 7.350331 3.220425 4.870165 5.750820 0.000000 0.000000 0.000000 4.096567 -0.463781 5.391727 1.040680 -0.582414 1.551651 -4.878710 -0.234418 0.445194 8.414766 -4.190533 -12.476289 0.000000 0.000000 0.000000 -26.551081 -4.130537 -1.307918 -43.293968 -5.263604 -2.645509 -10.800853 -23.459087 2.947351 0.000000 0.000000 0.000000 27.783896 -2.648237 -3.592070 49.300665 6.694545 -1.998266 6.476380 27.163526 2.468437 0.000000 0.000000 0.000000 
